<svg viewBox="0 0 1920 1920" preserveAspectRatio="xMidYMid meet" data-bbox="0 0 1920 1920" height="1920" width="1920" xmlns="http://www.w3.org/2000/svg" data-type="tint" role="presentation" aria-hidden="true" aria-label="">
    <g>
        <path fill="#FEFEFE" d="M0 0h1920v1920H0z"></path>
        <path fill="#5DA546" d="M346 884h1228v715H346z"></path>
        <path fill="#60A649" d="m885.357 344.853 2-.011q3.33-.015 6.662-.019l4.764-.02q6.484-.025 12.968-.036l8.098-.017q12.663-.03 25.326-.042 14.626-.015 29.254-.077 11.3-.044 22.599-.048c4.5-.002 9.002-.011 13.503-.036q6.35-.034 12.703-.018 2.331.001 4.662-.02c2.123-.017 4.244-.01 6.366.003l3.598-.007c3.78.596 5.431 1.846 8.14 4.495 1.414 2.829 1.15 5.223 1.177 8.387l.02 1.986c.02 2.177.031 4.353.041 6.53l.013 2.26q.03 5.931.044 11.864c.011 4.061.045 8.122.085 12.184.027 3.14.035 6.282.038 9.423q.008 2.242.035 4.486c.144 12.272-1.49 22.303-9.523 31.939-4.529 4.556-10.997 8.877-17.575 8.984L1018 447l.105 2.965c.214 10.346-.393 18.69-7.105 27.035-6.411 6.51-11.884 10.127-21.152 10.293q-3.393-.03-6.786-.105l-3.517-.041c-2.849-.036-5.697-.09-8.545-.147v20l7 1c13.096 4.27 23.996 13.514 30.75 25.406 1.958 4.063 3.184 8.224 4.25 12.594.26.93.26.93.523 1.88.822 3.654.661 7.327.664 11.058l.038 2.42c.01 4.338-.205 7.69-2.225 11.642l2.11.778c3.22 1.362 6.114 3.007 9.124 4.785l1.789 1.052a2561 2561 0 0 1 5.727 3.385l3.986 2.35q3.908 2.303 7.812 4.61 5.089 3.006 10.188 5.994a4585 4585 0 0 1 19.833 11.723 4910 4910 0 0 0 35.197 20.69 8380 8380 0 0 1 22.732 13.294 7408 7408 0 0 1 26.131 15.395 6387 6387 0 0 0 22.433 13.194l1.844 1.08L1194 679l16.782 9.831a7020 7020 0 0 1 25.848 15.226 6392 6392 0 0 0 22.432 13.193l1.844 1.08L1274 726l16.782 9.831a6663 6663 0 0 1 25.84 15.221 3473 3473 0 0 0 15.304 9.003l1.82 1.065 5.566 3.255 1.867 1.092a2234 2234 0 0 1 25.508 15.158c9.361 5.642 18.793 11.147 28.269 16.592 7.88 4.53 15.742 9.085 23.586 13.675q1.86 1.088 3.722 2.173C1444.7 826.15 1444.7 826.15 1448 830c.689 3.065.594 5.922 0 9-2.802 3.54-5.038 5.688-9.527 6.403-5.14-.596-8.698-3.13-13.036-5.84l-5.93-3.602-3.19-1.95c-5.188-3.145-10.43-6.197-15.67-9.253q-4.644-2.712-9.284-5.434l-1.865-1.094A4338 4338 0 0 1 1370.5 807a5605 5605 0 0 0-27.875-16.437l-1.821-1.067q-6.402-3.75-12.804-7.496a41228 41228 0 0 1-16.442-9.626 5311 5311 0 0 1-26.37-15.561 4238 4238 0 0 0-30.954-18.18 8380 8380 0 0 1-22.732-13.293 7408 7408 0 0 1-26.131-15.396 6400 6400 0 0 0-22.434-13.194l-1.848-1.083a39371 39371 0 0 0-16.777-9.826 8000 8000 0 0 1-42.153-24.824c-12.408-7.36-24.859-14.647-37.31-21.934-28.286-16.558-28.286-16.558-41.974-24.645l-2.589-1.527a1961 1961 0 0 1-13.657-8.138q-3.738-2.246-7.48-4.484-1.824-1.094-3.644-2.196c-1.69-1.022-3.384-2.036-5.08-3.05l-2.955-1.78c-2.453-1.49-2.453-1.49-5.47-1.263l-2.438 3c-6.784 8.259-17.061 14.174-27.562 16-16.804 1.553-31.294-.524-45-11-6.247-5.493-6.247-5.493-8-9-5.784 1.57-10.484 4.485-15.563 7.563l-5.91 3.535-3.188 1.91c-5.307 3.166-10.643 6.284-15.978 9.404A6019 6019 0 0 0 851 629.5a6684 6684 0 0 1-26.906 15.83l-14.98 8.774-13.052 7.646-1.844 1.081A6305 6305 0 0 0 771 676.501a6699 6699 0 0 1-26.906 15.83l-14.98 8.773-13.052 7.646-1.844 1.081a6873 6873 0 0 0-25.833 15.217 6582 6582 0 0 1-24.77 14.556A5933 5933 0 0 0 640 753.5a6696 6696 0 0 1-25.063 14.75l-1.848 1.083q-9.303 5.452-18.61 10.898l-9.104 5.332c-.6.35-1.198.701-1.815 1.063a5312 5312 0 0 0-26.373 15.562 3769 3769 0 0 1-27.952 16.432 8731 8731 0 0 0-28.53 16.696q-3.402 1.997-6.808 3.988a791 791 0 0 0-5.177 3.054c-3.819 2.251-6.235 3.52-10.72 2.642-4.067-3.434-5.798-5.482-6.5-10.75.08-3.8.388-4.136 3.258-7.062 5.134-4.118 10.894-7.224 16.617-10.438l3.52-2.003q3.477-1.981 6.958-3.955a843 843 0 0 0 11.897-6.917l2-1.18 4.077-2.41q3.573-2.113 7.15-4.222c7.866-4.645 15.73-9.294 23.585-13.957A5861 5861 0 0 1 595 756c12.475-7.261 24.939-14.54 37.36-21.895A5885 5885 0 0 1 655.5 720.5c8.51-4.983 17.014-9.977 25.5-15 12.066-7.14 24.164-14.225 36.262-21.31l11.015-6.455 1.809-1.06 5.414-3.175q10.057-5.896 20.117-11.79a9277 9277 0 0 0 36.998-21.758c7.616-4.505 15.25-8.98 22.885-13.452a7491 7491 0 0 0 28.263-16.621q7.346-4.347 14.682-8.71c12.756-7.582 25.547-15.092 38.42-22.473l3.104-1.782 2.732-1.564c1.802-1.058 3.56-2.19 5.299-3.35.035-2.964-.064-5.8-.25-8.75-.266-8.235-.266-8.235 1.55-11.808 3.1-2.867 5.087-3.42 9.325-3.567 3.717 1.24 5.758 2.2 8.375 5.125.403 2.323.743 4.657 1 7q2.54-1.421 5.08-2.846 2.184-1.224 4.371-2.443c3.379-1.89 6.731-3.795 10.002-5.867 9.818-6.142 9.818-6.142 16.547-4.844 2.81 1.794 4.51 3.019 6 6 .37 3.922.542 6.187-1.678 9.515-2.445 2.616-4.681 4.166-7.787 5.93l-3.174 1.825-3.299 1.855-6.464 3.695-2.89 1.634A354 354 0 0 0 937 579c1.472 3.834 3.419 5.178 6.937 7.188l2.653 1.543c4.347 2.29 7.792 2.432 12.66 2.457l3.89.043c5.68-.34 10.395-1.583 15.11-4.793 2.348-1.583 4.021-2.528 6.75-3.438 1.091-1.817 1.091-1.817 2-4a870 870 0 0 1 3.879-6.781c3.794-7.51 3.109-17.227.558-25.031-3.561-8.527-8.712-13.465-17.093-17.227-4.423-1.813-8.143-2.968-12.907-3.273-3.679-.335-4.386-.647-7.437-3.125-3.204-4.106-3.119-6.341-3.098-11.54l.005-2.076c.005-2.19.018-4.381.03-6.572q.008-2.226.014-4.453.017-5.46.049-10.922l-2.044.08c-3.11.105-6.22.169-9.331.233l-3.215.127c-8.484.13-15.085-1.588-21.522-7.321-8.979-9.2-9.586-19.958-9.888-32.119l-2.09-.226c-10.657-1.492-16.838-6.238-24.086-13.942-6.025-9.353-6.424-19.027-6.355-29.824q-.005-2.28-.012-4.558-.008-4.742.022-9.485c.022-4.045.01-8.09-.015-12.135a1182 1182 0 0 1 0-9.383 556 556 0 0 0-.01-4.476c-.01-2.082.006-4.162.028-6.244l.01-3.58c.61-3.778 1.86-5.436 4.508-8.147 2.826-1.413 5.195-1.136 8.357-1.147"></path>
        <path fill="#F9FCF9" d="m1522.688 914.867 3.313.008 3.312-.008c2.688.133 2.688.133 3.688 1.133.097 1.427.125 2.86.125 4.29l.007 2.83-.007 3.151.005 3.329q.003 5.595-.004 11.19l.005 8.044q.006 8.782.001 17.566-.005 13.06.001 26.12.008 23.32.002 46.64-.003 20.408-.002 40.814v2.73l.002 10.97q.004 51.5-.006 103-.006 45.797 0 91.595a417286 417286 0 0 1 .004 113.757v2.723q-.002 20.4.003 40.798.005 23.185-.003 46.37-.005 12.99 0 25.98.003 8.661-.003 17.322-.004 4.946 0 9.891.004 5.31-.005 10.618l.007 3.152-.007 2.829v2.457C1533 1566 1533 1566 1532 1567c-1.998.099-4 .13-6 .125l-3.313.008C1520 1567 1520 1567 1519 1566a63 63 0 0 1-.126-4.291l-.007-2.83.007-3.15-.005-3.329q-.003-5.595.004-11.19l-.005-8.044q-.006-8.782-.001-17.566.005-13.06-.001-26.12-.008-23.32-.002-46.64.003-20.408.002-40.814v-2.73l-.002-10.97q-.004-51.5.006-103 .006-45.798 0-91.596a417286 417286 0 0 1-.004-113.756v-2.724q.002-20.398-.003-40.798-.005-23.184.003-46.369.005-12.99 0-25.98-.003-8.661.003-17.322.004-4.946 0-9.891-.004-5.31.005-10.619l-.007-3.15.007-2.83v-2.457c.205-2.993.794-2.818 3.813-2.967"></path>
        <path fill="#F9FCF9" d="m1118.688 914.867 3.313.008 3.312-.008c2.688.133 2.688.133 3.688 1.133.097 1.427.125 2.86.125 4.29l.007 2.83-.007 3.151.005 3.329q.003 5.595-.004 11.19l.005 8.044q.006 8.782.001 17.566-.005 13.06.001 26.12.008 23.32.002 46.64-.003 20.408-.002 40.814v2.73l.002 10.97q.004 51.5-.006 103-.006 45.797 0 91.595a417286 417286 0 0 1 .004 113.757v2.723q-.001 20.4.003 40.798.005 23.185-.003 46.37-.005 12.99 0 25.98.003 8.661-.003 17.322-.004 4.946 0 9.891.004 5.31-.005 10.618l.007 3.152-.007 2.829v2.457C1129 1566 1129 1566 1128 1567c-1.998.099-4 .13-6 .125l-3.313.008C1116 1567 1116 1567 1115 1566a63 63 0 0 1-.126-4.291l-.007-2.83.007-3.15-.005-3.329q-.003-5.595.004-11.19l-.005-8.044q-.006-8.782-.001-17.566.005-13.06-.001-26.12-.008-23.32-.002-46.64.003-20.408.002-40.814v-2.73l-.002-10.97q-.004-51.5.006-103 .006-45.798 0-91.596a417286 417286 0 0 1-.004-113.756v-2.724q.001-20.398-.003-40.798-.005-23.184.003-46.369.005-12.99 0-25.98-.003-8.661.003-17.322.004-4.946 0-9.891-.004-5.31.005-10.619l-.007-3.15.007-2.83v-2.457c.205-2.993.794-2.818 3.813-2.967"></path>
        <path fill="#F8FBF7" d="m1037.688 914.867 3.313.008 3.312-.008c2.688.133 2.688.133 3.688 1.133.097 1.427.125 2.86.125 4.29l.007 2.83-.007 3.151.005 3.329q.003 5.595-.004 11.19l.005 8.044q.006 8.782.001 17.566-.005 13.06.001 26.12.008 23.32.002 46.64-.003 20.408-.002 40.814v2.73l.002 10.97q.004 51.5-.006 103-.006 45.797 0 91.595a417286 417286 0 0 1 .004 113.757v2.723q-.001 20.4.003 40.798.005 23.185-.003 46.37-.005 12.99 0 25.98.003 8.661-.003 17.322-.004 4.946 0 9.891.004 5.31-.005 10.618l.007 3.152-.007 2.829v2.457C1048 1566 1048 1566 1047 1567c-1.998.099-4 .13-6 .125l-3.313.008C1035 1567 1035 1567 1034 1566a63 63 0 0 1-.126-4.291l-.007-2.83.007-3.15-.005-3.329q-.003-5.595.004-11.19l-.005-8.044q-.006-8.782-.001-17.566.005-13.06-.001-26.12-.008-23.32-.002-46.64.003-20.408.002-40.814v-2.73l-.002-10.97q-.004-51.5.006-103 .006-45.798 0-91.596a417286 417286 0 0 1-.004-113.756v-2.724q.001-20.398-.003-40.798-.005-23.184.003-46.369.005-12.99 0-25.98-.003-8.661.003-17.322.004-4.946 0-9.891-.004-5.31.005-10.619l-.007-3.15.007-2.83v-2.457c.205-2.993.794-2.818 3.813-2.967"></path>
        <path fill="#F9FBF8" d="m956.688 914.867 3.313.008 3.312-.008c2.688.133 2.688.133 3.688 1.133.097 1.427.125 2.86.125 4.29l.007 2.83-.007 3.151.005 3.329q.003 5.595-.004 11.19l.005 8.044q.006 8.782.001 17.566-.005 13.06.001 26.12.008 23.32.002 46.64-.003 20.408-.002 40.814v2.73l.002 10.97q.004 51.5-.006 103-.006 45.797 0 91.595a417286 417286 0 0 1 .004 113.757v2.723q-.001 20.4.003 40.798.004 23.185-.003 46.37-.005 12.99 0 25.98.003 8.661-.003 17.322-.005 4.946 0 9.891.004 5.31-.005 10.618l.007 3.152-.007 2.829v2.457C967 1566 967 1566 966 1567c-1.998.099-4 .13-6 .125l-3.313.008C954 1567 954 1567 953 1566a63 63 0 0 1-.126-4.291l-.007-2.83.007-3.15-.005-3.329q-.003-5.595.004-11.19l-.005-8.044q-.006-8.782-.001-17.566.005-13.06-.001-26.12-.008-23.32-.002-46.64.003-20.408.002-40.814v-2.73l-.002-10.97q-.004-51.5.006-103 .006-45.798 0-91.596a417286 417286 0 0 1-.004-113.756v-2.724q.002-20.398-.003-40.798-.005-23.184.003-46.369.005-12.99 0-25.98-.003-8.661.003-17.322.005-4.946 0-9.891-.003-5.31.005-10.619l-.007-3.15.007-2.83v-2.457c.205-2.993.794-2.818 3.813-2.967"></path>
        <path fill="#F8FBF7" d="m875.688 914.867 3.313.008 3.312-.008c2.688.133 2.688.133 3.688 1.133.097 1.427.125 2.86.125 4.29l.007 2.83-.007 3.151.005 3.329q.003 5.595-.004 11.19l.005 8.044q.006 8.782.001 17.566-.005 13.06.001 26.12.008 23.32.002 46.64-.003 20.408-.002 40.814v2.73l.002 10.97q.004 51.5-.006 103-.006 45.797 0 91.595a417286 417286 0 0 1 .004 113.757v2.723q-.001 20.4.003 40.798.004 23.185-.003 46.37-.005 12.99 0 25.98.003 8.661-.003 17.322-.005 4.946 0 9.891.004 5.31-.005 10.618l.007 3.152-.007 2.829v2.457C886 1566 886 1566 885 1567c-1.998.099-4 .13-6 .125l-3.313.008C873 1567 873 1567 872 1566a63 63 0 0 1-.126-4.291l-.007-2.83.007-3.15-.005-3.329q-.003-5.595.004-11.19l-.005-8.044q-.006-8.782-.001-17.566.005-13.06-.001-26.12-.008-23.32-.002-46.64.003-20.408.002-40.814v-2.73l-.002-10.97q-.004-51.5.006-103 .006-45.798 0-91.596a417286 417286 0 0 1-.004-113.756v-2.724q.002-20.398-.003-40.798-.005-23.184.003-46.369.005-12.99 0-25.98-.003-8.661.003-17.322.005-4.946 0-9.891-.003-5.31.005-10.619l-.007-3.15.007-2.83v-2.457c.205-2.993.794-2.818 3.813-2.967"></path>
        <path fill="#FAFCF9" d="m471.688 914.867 3.313.008 3.312-.008c2.688.133 2.688.133 3.688 1.133.097 1.427.125 2.86.125 4.29l.007 2.83-.007 3.151.005 3.329q.003 5.595-.004 11.19l.005 8.044q.006 8.782.001 17.566-.005 13.06.001 26.12.008 23.32.002 46.64-.003 20.408-.002 40.814v2.73l.002 10.97q.004 51.5-.006 103-.006 45.797 0 91.595a417286 417286 0 0 1 .004 113.757v2.723q-.001 20.4.003 40.798.005 23.185-.003 46.37-.005 12.99 0 25.98.003 8.661-.003 17.322-.004 4.946 0 9.891.004 5.31-.005 10.618l.007 3.152-.007 2.829v2.457C482 1566 482 1566 481 1567c-1.998.099-4 .13-6 .125l-3.313.008C469 1567 469 1567 468 1566a63 63 0 0 1-.126-4.291l-.007-2.83.007-3.15-.005-3.329q-.003-5.595.004-11.19l-.005-8.044q-.006-8.782-.001-17.566.005-13.06-.001-26.12-.008-23.32-.002-46.64.003-20.408.002-40.814v-2.73l-.002-10.97q-.004-51.5.006-103 .006-45.798 0-91.596a417286 417286 0 0 1-.004-113.756v-2.724q.001-20.398-.003-40.798-.005-23.184.003-46.369.005-12.99 0-25.98-.003-8.661.003-17.322.005-4.946 0-9.891-.003-5.31.005-10.619l-.007-3.15.007-2.83v-2.457c.205-2.993.794-2.818 3.813-2.967"></path>
        <path fill="#FAFCF9" d="m390.688 914.867 3.313.008 3.312-.008c2.688.133 2.688.133 3.688 1.133.097 1.427.125 2.86.125 4.29l.007 2.83-.007 3.151.005 3.329q.003 5.595-.004 11.19l.005 8.044q.006 8.782.001 17.566-.005 13.06.001 26.12.008 23.32.002 46.64-.003 20.408-.002 40.814v2.73l.002 10.97q.004 51.5-.006 103-.006 45.797 0 91.595a417286 417286 0 0 1 .004 113.757v2.723q-.001 20.4.003 40.798.005 23.185-.003 46.37-.005 12.99 0 25.98.003 8.661-.003 17.322-.004 4.946 0 9.891.004 5.31-.005 10.618l.007 3.152-.007 2.829v2.457C401 1566 401 1566 400 1567c-1.998.099-4 .13-6 .125l-3.313.008C388 1567 388 1567 387 1566a63 63 0 0 1-.126-4.291l-.007-2.83.007-3.15-.005-3.329q-.003-5.595.004-11.19l-.005-8.044q-.006-8.782-.001-17.566.005-13.06-.001-26.12-.008-23.32-.002-46.64.003-20.408.002-40.814v-2.73l-.002-10.97q-.004-51.5.006-103 .006-45.798 0-91.596a417286 417286 0 0 1-.004-113.756v-2.724q.001-20.398-.003-40.798-.005-23.184.003-46.369.005-12.99 0-25.98-.003-8.661.003-17.322.005-4.946 0-9.891-.003-5.31.005-10.619l-.007-3.15.007-2.83v-2.457c.205-2.993.794-2.818 3.813-2.967"></path>
        <path fill="#F9FCF9" d="m1445.563 914.875 3.004-.008C1451 915 1451 915 1452 916c.097 1.428.125 2.86.125 4.29l.007 2.83-.007 3.152.005 3.328q.003 5.595-.004 11.19l.005 8.044q.006 8.782.001 17.566-.005 13.06.001 26.12.008 23.32.002 46.64-.003 20.408-.002 40.814v2.73l.002 10.97q.004 51.5-.006 103-.006 45.798 0 91.596a417286 417286 0 0 1 .004 113.756v2.723q-.002 20.4.003 40.798.005 23.185-.003 46.37-.005 12.99 0 25.98.003 8.661-.003 17.322-.004 4.945 0 9.891.004 5.31-.005 10.618l.007 3.152-.007 2.83v2.456C1452 1566 1452 1566 1451 1567c-1.998.099-4 .13-6 .125l-3.313.008C1439 1567 1439 1567 1438 1566a63 63 0 0 1-.125-4.292l-.007-2.83.008-3.152-.003-3.33c-.003-3.73.002-7.462.006-11.193l-.002-8.046q-.002-8.785.003-17.57.008-13.064.006-26.127-.002-21.972.008-43.943a130988 130988 0 0 0 .012-59.988q.004-48.657.018-97.314.015-47.28.02-94.56l.001-2.942.012-88.848v-2.768q.016-91.55.043-183.097c2.623-1.312 4.636-1.133 7.562-1.125"></path>
        <path fill="#F9FBF8" d="M792 915q2.969-.04 5.938-.062l3.34-.036C804 915 804 915 805 916c.097 1.428.125 2.86.125 4.29l.008 2.83-.007 3.152.004 3.328c.004 3.73 0 7.46-.003 11.19l.005 8.044q.005 8.782 0 17.566-.004 13.06.002 26.12.007 23.32.002 46.64-.004 20.408-.002 40.814v2.73l.001 10.97q.004 51.5-.005 103-.007 45.798 0 91.596a417286 417286 0 0 1 .004 113.756v2.723q-.002 20.4.002 40.798.005 23.185-.003 46.37-.004 12.99 0 25.98.005 8.661-.003 17.322-.003 4.945 0 9.891.004 5.31-.004 10.618l.007 3.152-.008 2.83v2.456C805 1566 805 1566 804 1567c-1.998.099-4 .13-6 .125l-3.312.008C792 1567 792 1567 791 1566a63 63 0 0 1-.125-4.283l-.008-2.825.007-3.145-.004-3.322c-.004-3.724 0-7.447.003-11.17l-.005-8.03q-.005-8.767 0-17.534.004-13.037-.002-26.073-.007-23.28-.002-46.557.004-20.373.002-40.744v-2.726l-.001-10.951q-.004-51.414.005-102.826.007-45.718 0-91.435a415841 415841 0 0 1-.004-113.562v-2.72q.002-20.362-.002-40.724-.005-23.145.003-46.29.004-12.966 0-25.933-.005-8.648.003-17.295.003-4.935 0-9.872-.004-5.303.004-10.604l-.007-3.138.008-2.832v-2.453C791 917 791 917 792 915"></path>
        <path fill="#F8FBF7" d="m552.434 914.867 3.004.008 2.996-.008C561 915 561 915 563 916q.028 92.933.043 185.864v2.777l.012 89.014v2.944q.008 47.279.022 94.557a425488 425488 0 0 1 .018 110.83v2.725q.003 21.752.012 43.504.009 21.84.007 43.682-.001 12.994.007 25.987.006 8.664.001 17.327-.002 4.947.003 9.893.005 5.31-.002 10.621l.008 3.153-.006 2.83v2.457C563 1566 563 1566 562 1567c-1.998.099-4 .13-6 .125l-3.312.008C550 1567 550 1567 549 1566a63 63 0 0 1-.125-4.291l-.008-2.83.008-3.15-.005-3.329c-.004-3.73 0-7.46.003-11.19q0-4.022-.004-8.044-.006-8.782-.001-17.566.005-13.06-.001-26.12-.008-23.32-.002-46.64.003-20.408.002-40.814v-2.73l-.002-10.97q-.004-51.5.005-103 .008-45.798 0-91.596a417286 417286 0 0 1-.003-113.756v-2.724q.001-20.398-.003-40.798-.005-23.184.003-46.369.005-12.99 0-25.98-.003-8.661.003-17.322.005-4.946 0-9.891-.004-5.31.005-10.619l-.008-3.15.008-2.83v-2.457c.195-2.859.693-2.81 3.559-2.967"></path>
        <path fill="#F9FBF8" d="m1202.438 914.813 2.996-.043c2.567.23 2.567.23 4.567 2.23.25 1.954.25 1.954.249 4.402l.014 2.826-.015 3.133.008 3.32c.007 3.716-.001 7.432-.01 11.147l.008 8.02q.008 8.751-.003 17.503c-.01 8.676-.008 17.352-.004 26.028q.008 21.89-.005 43.779a71317 71317 0 0 0-.014 43.368v13.655q0 51.324-.024 102.649a194244 194244 0 0 0-.02 97.134l.001 2.927v17.489a294367 294367 0 0 1-.013 89.81q-.005 18.978-.006 37.956 0 24.452-.014 48.905-.008 12.944-.006 25.887 0 8.63-.008 17.263-.005 4.927-.002 9.854.002 5.293-.008 10.585l.006 3.133-.008 2.826v2.448c-.126 1.954-.126 1.954-1.126 3.954q-2.97.039-5.938.062l-3.34.035c-2.722-.097-2.722-.097-3.722-1.097a63 63 0 0 1-.126-4.291l-.007-2.83.007-3.151-.005-3.328q-.003-5.595.004-11.19l-.005-8.044q-.006-8.784-.001-17.566.005-13.06-.001-26.12-.008-23.32-.002-46.64.003-20.407.002-40.815v-2.73l-.002-10.97q-.004-51.5.006-103 .006-45.797 0-91.595a417286 417286 0 0 1-.004-113.756v-2.724q.001-20.4-.003-40.798-.005-23.185.003-46.369.005-12.99 0-25.98-.003-8.662.003-17.323.004-4.946 0-9.89-.004-5.31.005-10.619l-.007-3.151.007-2.83v-2.456c.27-3.955 3.261-3 6.563-3.022"></path>
        <path fill="#FDFEFD" d="m1361.469 914.867 3.031.008 3.032-.008C1370 915 1370 915 1371 916c.098 1.427.125 2.86.126 4.29l.007 2.83-.007 3.151.004 3.329c.004 3.73 0 7.46-.003 11.19l.005 8.044q.005 8.782 0 17.566-.003 13.06.002 26.12.007 23.32.002 46.64-.003 20.408-.002 40.814v2.73l.001 10.97q.004 51.5-.005 103-.007 45.797 0 91.595a417286 417286 0 0 1 .004 113.757v2.723q-.001 20.4.003 40.798.004 23.185-.004 46.37-.004 12.99 0 25.98.005 8.661-.003 17.322-.003 4.946 0 9.891.004 5.31-.004 10.618l.007 3.152-.007 2.829v2.457C1371 1566 1371 1566 1370 1567c-2.02.072-4.041.084-6.062.062l-3.348-.027-2.59-.035q-.027-93.075-.042-186.15v-2.781l-.013-92.1q-.007-47.352-.021-94.703a426799 426799 0 0 1-.019-111v-2.73q-.002-21.785-.012-43.57a86883 86883 0 0 1-.006-43.75q0-13.012-.008-26.027-.004-8.677 0-17.353.001-4.954-.004-9.909-.005-5.318.002-10.637l-.008-3.157.007-2.835v-2.46c.195-2.881.703-2.816 3.593-2.971"></path>
        <path fill="#FEFEFE" d="m1280.469 914.867 3.031.008 3.032-.008C1289 915 1289 915 1290 916a63 63 0 0 1 .124 4.298l.007 2.835-.008 3.157.004 3.334q.001 5.606-.006 11.21 0 4.03.002 8.059.002 8.8-.004 17.597-.008 13.084-.005 26.168.001 22.005-.008 44.01-.01 21.798-.01 43.597l-.001 2.735-.001 13.748q-.004 48.732-.018 97.464-.015 47.353-.02 94.706l-.001 2.947-.013 91.756q-.015 91.69-.042 183.379-2.968.04-5.937.062l-3.34.035C1278 1567 1278 1567 1277 1566a63 63 0 0 1-.125-4.291l-.008-2.83.007-3.15-.004-3.329c-.004-3.73 0-7.46.003-11.19q0-4.022-.004-8.044-.006-8.782-.001-17.566.003-13.06-.002-26.12-.006-23.32-.002-46.64.005-20.408.002-40.814v-13.7q-.005-51.5.004-103 .008-45.798 0-91.596a417286 417286 0 0 1-.004-113.756v-2.724q.002-20.398-.002-40.798-.005-23.184.003-46.369.004-12.99 0-25.98-.004-8.661.003-17.322.004-4.946 0-9.891-.003-5.31.004-10.619l-.007-3.15.008-2.83v-2.457c.196-2.878.707-2.812 3.594-2.967"></path>
        <path fill="#FDFEFD" d="m633.469 914.867 3.031.008 3.032-.008C642 915 642 915 643 916a63 63 0 0 1 .124 4.298l.007 2.835-.008 3.157.004 3.334q.002 5.606-.006 11.21 0 4.03.002 8.059.002 8.8-.004 17.597-.008 13.084-.005 26.168.001 22.005-.008 44.01-.01 21.798-.01 43.597l-.001 2.735-.001 13.748q-.004 48.732-.018 97.464-.015 47.353-.02 94.706l-.001 2.947-.013 91.756q-.015 91.69-.042 183.379-2.968.04-5.937.062l-3.34.035C631 1567 631 1567 630 1566a63 63 0 0 1-.125-4.291l-.008-2.83.007-3.15-.004-3.329c-.004-3.73 0-7.46.003-11.19q0-4.022-.004-8.044-.006-8.782-.001-17.566.004-13.06-.002-26.12-.006-23.32-.002-46.64.005-20.408.002-40.814v-13.7q-.005-51.5.004-103 .007-45.798 0-91.596a417286 417286 0 0 1-.004-113.756v-2.724q.002-20.398-.002-40.798-.005-23.184.003-46.369.005-12.99 0-25.98-.004-8.661.003-17.322.004-4.946 0-9.891-.003-5.31.004-10.619l-.007-3.15.008-2.83v-2.457c.196-2.878.707-2.812 3.594-2.967"></path>
        <path fill="#FEFEFE" d="m714.469 914.867 3.031.008 3.032-.008C723 915 723 915 724 916c.098 1.427.125 2.86.126 4.29l.007 2.83-.007 3.151.004 3.329c.004 3.73 0 7.46-.003 11.19l.005 8.044q.005 8.782 0 17.566-.003 13.06.002 26.12.007 23.32.002 46.64-.003 20.408-.002 40.814v2.73l.001 10.97q.004 51.5-.005 103-.007 45.797 0 91.595a417286 417286 0 0 1 .004 113.757v2.723q-.001 20.4.003 40.798.004 23.185-.004 46.37-.004 12.99 0 25.98.005 8.661-.003 17.322-.003 4.946 0 9.891.004 5.31-.004 10.618l.007 3.152-.007 2.829v2.457C724 1566 724 1566 723 1567c-1.83.098-3.666.13-5.5.125l-3.031.008C712 1567 712 1567 711 1566a63 63 0 0 1-.125-4.291l-.008-2.83.007-3.15-.004-3.329c-.004-3.73 0-7.46.003-11.19q0-4.022-.004-8.044-.006-8.782-.001-17.566.004-13.06-.002-26.12-.006-23.32-.002-46.64.005-20.408.002-40.814v-13.7q-.005-51.5.004-103 .007-45.798 0-91.596a417286 417286 0 0 1-.004-113.756v-2.724q.002-20.398-.002-40.798-.005-23.184.003-46.369.004-12.99 0-25.98-.004-8.661.003-17.322.004-4.946 0-9.891-.003-5.31.004-10.619l-.007-3.15.008-2.83v-2.457c.196-2.878.707-2.812 3.594-2.967"></path>
        <path fill="#FEFEFE" d="M893 365h134c0 53 0 53-4 60-2.903 2.123-5.377 2.255-8.92 2.274l-3 .03-3.27.002-3.461.026c-3.78.024-7.56.032-11.341.04l-7.877.026q-8.259.025-16.518.028c-6.358.003-12.715.033-19.073.075-6.123.039-12.246.05-18.369.051q-3.903.006-7.806.038c-3.639.027-7.276.022-10.915.01l-3.26.044c-8.153-.08-8.153-.08-11.78-2.869C884.295 409.672 893 377.137 893 365"></path>
        <path fill="#F9FBF8" d="M925 447h73c0 13 0 13-3 18-3.45 2.3-4.793 2.266-8.86 2.306l-3.652.049-3.949.016-4.054.027q-4.25.024-8.499.028a977 977 0 0 0-10.87.088c-2.792.03-5.584.037-8.375.038-1.984.006-3.968.036-5.951.066-10.012-.05-10.012-.05-13.085-3.09L926 462l-1-1z"></path>
    </g>
</svg>