<svg preserveAspectRatio="xMidYMid meet" data-bbox="19.999 34.001 160.001 132.004" viewBox="19.999 34.001 160.001 132.004" height="200" width="200" xmlns="http://www.w3.org/2000/svg" data-type="color" role="presentation" aria-hidden="true" aria-label=""><defs><style>#comp-kq9g53cj1 svg [data-color="1"] {fill: #5DA546;}</style></defs>
    <g>
        <path d="M55.064 115.067a1.406 1.406 0 0 0-.167.655c0 .149.03.291.072.426l-3.623 41.216a1.418 1.418 0 0 0 1.415 1.546h5.085c.707 0 1.306-.52 1.407-1.22l2.749-19.238c.353-2.472 2.272-4.266 4.562-4.266h20.778c2.273 0 4.19 1.779 4.557 4.229l2.886 19.284a1.422 1.422 0 0 0 1.405 1.211h5.182a1.42 1.42 0 0 0 1.418-1.527l-3.109-41.491c.007-.056.017-.111.017-.169a1.41 1.41 0 0 0-.058-.381L97.08 81.15h73.995c.426 0 .83-.192 1.099-.521l7.504-9.167a1.42 1.42 0 0 0-1.099-2.321h-13.691L103.823 39.14a1.422 1.422 0 0 0-1.253 2.551l55.872 27.45h-18.641v-3.004a1.42 1.42 0 1 0-2.842 0v3.004h-13.506v-3.004a1.42 1.42 0 1 0-2.842 0v3.004h-13.506v-3.004a1.42 1.42 0 1 0-2.842 0v3.004h-7.878V50.859a1.42 1.42 0 1 0-2.842 0v8.325H60.497a1.422 1.422 0 0 0 0 2.842h30.408l-7.08 7.115H27.569L43.1 61.563a1.42 1.42 0 1 0-1.245-2.553l-21.06 10.275c-.034.017-.063.04-.096.059-.033.02-.067.038-.098.06a1.379 1.379 0 0 0-.144.119c-.019.018-.04.035-.058.054-.047.049-.09.102-.129.156-.013.018-.027.036-.039.055a1.46 1.46 0 0 0-.099.182l-.028.06a1.46 1.46 0 0 0-.064.207l-.014.056a1.455 1.455 0 0 0-.024.238c0 .01-.003.019-.003.029v9.166a1.42 1.42 0 0 0 1.421 1.421h36.624l-2.98 33.92zm44.779 41.001h-2.427l-2.705-18.074c-.578-3.853-3.676-6.65-7.367-6.65H66.565c-3.718 0-6.82 2.82-7.376 6.706l-2.575 18.018h-2.302l3.421-38.925h39.192l2.918 38.925zM61.705 98.129h30.95l-16.183 15.577-14.767-15.577zm113.874-26.146l-5.178 6.325H96.867l-.474-6.325h79.186zm-78.865 42.318H79.952l15.634-15.048 1.128 15.048zm-1.425-19.014H61.818L75.884 81.15h18.345l1.06 14.137zm-1.745-31.885v5.739h-5.71l5.71-5.739zm-8.538 8.581h8.54l.002.068.469 6.256H78.713l6.293-6.324zm-23.302 0h19.293l-6.293 6.325H61.148l.556-6.325zm-.806 9.167h10.977l-12.041 12.1 1.064-12.1zm12.222 33.151H57.984l1.284-14.611 13.852 14.611zM22.842 78.307v-6.325h36.009l-.556 6.325H22.842z" fill="#0C2A60" data-color="1"></path>
        <path d="M60.497 54.147c.205 0 .414-.044.611-.139L87.12 41.587a1.421 1.421 0 0 0-1.225-2.565L59.884 51.444a1.421 1.421 0 0 0 .613 2.703z" fill="#0C2A60" data-color="1"></path>
        <path d="M46.255 62.992h10.506c.784 0 1.421-.637 1.421-1.421v-7.148a1.42 1.42 0 0 0-1.421-1.421H46.255c-.784 0-1.421.637-1.421 1.421v7.148c0 .784.636 1.421 1.421 1.421zm1.421-7.148h7.664v4.306h-7.664v-4.306z" fill="#0C2A60" data-color="1"></path>
        <path d="M142.186 93.75c.784 0 1.421-.637 1.421-1.421V86.16a1.42 1.42 0 0 0-1.421-1.421h-7.421c-.784 0-1.421.637-1.421 1.421v6.169a1.42 1.42 0 0 0 1.421 1.421h7.421zm-6.001-6.169h4.579v3.327h-4.579v-3.327z" fill="#0C2A60" data-color="1"></path>
        <path d="M154.771 93.75c.784 0 1.421-.637 1.421-1.421V86.16a1.42 1.42 0 0 0-1.421-1.421h-7.522c-.784 0-1.421.637-1.421 1.421v6.169a1.42 1.42 0 0 0 1.421 1.421h7.522zm-6.101-6.169h4.68v3.327h-4.68v-3.327z" fill="#0C2A60" data-color="1"></path>
        <path d="M167.314 93.75c.784 0 1.421-.637 1.421-1.421V86.16a1.42 1.42 0 0 0-1.421-1.421h-7.581c-.784 0-1.421.637-1.421 1.421v6.169a1.42 1.42 0 0 0 1.421 1.421h7.581zm-6.16-6.169h4.739v3.327h-4.739v-3.327z" fill="#0C2A60" data-color="1"></path>
        <path d="M94.965 46.608c3.416 0 6.196-2.827 6.196-6.303s-2.78-6.304-6.196-6.304-6.195 2.828-6.195 6.304c-.001 3.475 2.778 6.303 6.195 6.303zm0-9.766c1.849 0 3.354 1.553 3.354 3.462 0 1.909-1.505 3.461-3.354 3.461s-3.353-1.552-3.353-3.461c-.001-1.908 1.504-3.462 3.353-3.462z" fill="#0C2A60" data-color="1"></path>
        <path d="M179.36 161.195a1.422 1.422 0 0 0-1.983.324c-.44.612-1.365 1.639-2.575 1.647a2.608 2.608 0 0 0-.339-.023h-.001a1.639 1.639 0 0 0-.121-.029 2.591 2.591 0 0 1-.315-.079c-.034-.01-.117-.044-.151-.053a1.868 1.868 0 0 0-.111-.05 2 2 0 0 1-.412-.222c-.117-.084-.238-.168-.364-.268a2.35 2.35 0 0 1-.258-.242c-.617-.625-1.135-1.496-1.499-2.518a1.42 1.42 0 0 0-1.359-.946c-.592 0-1.134.372-1.339.946-.587 1.659-1.545 2.859-2.625 3.293-.034.013-.135.049-.168.066l-.241.066c-.47.095-.801.063-1.251-.076a2.49 2.49 0 0 1-.155-.054c-1.097-.469-2.081-1.739-2.635-3.397a1.422 1.422 0 0 0-1.347-.971h-.031c-.6 0-1.147.381-1.345.966-.572 1.69-1.536 2.93-2.619 3.391-.06.024-.127.049-.245.086-.339.118-.824.128-1.172.064a2.445 2.445 0 0 1-.425-.136c-1.082-.445-2.036-1.645-2.615-3.293a1.4 1.4 0 0 0-1.355-.95 1.435 1.435 0 0 0-1.355.95c-.576 1.64-1.526 2.838-2.599 3.281-.056.022-.113.047-.232.084-.405.142-.892.152-1.449-.019a4.567 4.567 0 0 1-.158-.056c-1.088-.465-2.074-1.738-2.637-3.403a1.421 1.421 0 0 0-1.345-.966h-.031c-.601 0-1.15.383-1.347.97-.554 1.655-1.533 2.923-2.618 3.39a2.382 2.382 0 0 1-.62.175 3.11 3.11 0 0 1-.76-.027c-.09-.02-.179-.049-.297-.085-.056-.017-.113-.042-.164-.062-1.084-.445-2.037-1.641-2.614-3.283a1.423 1.423 0 0 0-1.361-.95 1.42 1.42 0 0 0-1.338.946c-.363 1.02-.882 1.892-1.488 2.508-.071.07-.145.137-.218.203l-.095.086c-.089.07-.182.143-.315.23a2.558 2.558 0 0 1-.339.195 1.6 1.6 0 0 1-.282.116c-.039.01-.077.022-.115.035a.725.725 0 0 1-.108.03 1.484 1.484 0 0 0-.111.026c-.041.007-.09.017-.164.029-.041.004-.079.018-.118.01-.068.001-.112-.002-.183.009-1.242 0-2.167-1.027-2.607-1.639a1.422 1.422 0 0 0-2.307 1.66c1.309 1.82 3.055 2.822 4.914 2.822.086 0 .181-.003.274-.011a4.398 4.398 0 0 0 .872-.121 3.62 3.62 0 0 0 .442-.119c.244-.069.495-.169.764-.303a4.98 4.98 0 0 0 .658-.383 6.802 6.802 0 0 0 .607-.455l.115-.104a8.15 8.15 0 0 0 .33-.309c.292-.297.568-.625.824-.983.8 1.107 1.791 1.936 2.891 2.387.14.057.281.112.438.159.152.046.304.092.5.136a5.456 5.456 0 0 0 1.614.077 5.216 5.216 0 0 0 1.485-.393c1.092-.471 2.072-1.314 2.86-2.431.797 1.127 1.792 1.977 2.904 2.452.137.056.29.112.421.151 1.118.343 2.3.305 3.155.004a5.04 5.04 0 0 0 .431-.157c1.093-.451 2.08-1.28 2.877-2.387.799 1.113 1.786 1.944 2.872 2.39.271.117.582.216.945.297.961.182 1.908.112 2.632-.144.136-.041.288-.095.451-.161 1.103-.468 2.093-1.316 2.891-2.443.797 1.125 1.793 1.975 2.913 2.454.139.056.29.111.418.149a5.23 5.23 0 0 0 2.603.149c.123-.022.254-.057.43-.109.193-.048.381-.115.556-.197 1.104-.454 2.081-1.268 2.872-2.371.248.345.513.661.791.943.168.181.365.365.554.512.158.125.315.239.484.358.299.208.616.382.943.517.14.068.335.152.57.212.179.054.358.099.537.134.116.029.233.048.368.064.114.013.237.024.362.029.093.007.188.01.274.01 1.859 0 3.605-1.002 4.914-2.822a1.427 1.427 0 0 0-.325-1.988z" fill="#0C2A60" data-color="1"></path>
        <path d="M128.217 96.149v3.929h-2.408c-.784 0-1.421.637-1.421 1.421v14.231c0 10.212 5.201 19.708 14.268 26.055l10.835 7.584a1.429 1.429 0 0 0 1.647-.011l11.258-8.125c8.788-6.343 13.828-15.726 13.828-25.744v-13.99a1.42 1.42 0 0 0-1.421-1.421h-2.409v-3.929a1.42 1.42 0 0 0-1.421-1.421h-41.335a1.42 1.42 0 0 0-1.421 1.421zm2.842 1.421h38.493v2.508h-38.493V97.57zm17.825 5.35v25.73a1.42 1.42 0 1 0 2.842 0v-25.73h19.21c.012 0 .024.004.037.004.013 0 .024-.003.037-.004h2.372v12.569c0 9.094-4.611 17.637-12.65 23.439l-10.44 7.535-10.007-7.005c-8.297-5.808-13.056-14.456-13.056-23.727v-12.81h2.179c.075.012.151.023.229.023.079 0 .154-.011.229-.023h19.018z" fill="#0C2A60" data-color="1"></path>
        <path d="M109.445 160.883H45.287a1.422 1.422 0 0 0 0 2.842h64.158a1.422 1.422 0 0 0 0-2.842z" fill="#0C2A60" data-color="1"></path>
    </g>
</svg>