<svg preserveAspectRatio="xMidYMid meet" data-bbox="22.5 20.001 155 159.999" viewBox="22.5 20.001 155 159.999" height="200" width="200" xmlns="http://www.w3.org/2000/svg" data-type="color" role="presentation" aria-hidden="true" aria-label=""><defs><style>#comp-m2de3s2f svg [data-color="1"] {fill: #5DA546;}</style></defs>
    <g>
        <path d="M109.647 180a2.722 2.722 0 0 1-2.727-2.62l-1.682-48.061a2.72 2.72 0 0 1 2.635-2.805c1.495-.085 2.771 1.12 2.823 2.618l1.682 48.061a2.72 2.72 0 0 1-2.635 2.805c-.032.002-.064.002-.096.002z" fill="#5DA546" data-color="1"></path>
        <path d="M25.232 180c-.032 0-.064 0-.096-.002a2.72 2.72 0 0 1-2.635-2.805l3.41-97.567c-.001-2.991 2.526-5.501 5.634-5.501h66.424a2.724 2.724 0 0 1 2.731 2.713 2.722 2.722 0 0 1-2.731 2.713H31.545l-3.586 97.829a2.722 2.722 0 0 1-2.727 2.62z" fill="#5DA546" data-color="1"></path>
        <path d="M54.652 145.356a2.722 2.722 0 0 1-2.731-2.713V72.989c0-1.498 1.223-2.713 2.731-2.713s2.731 1.215 2.731 2.713v69.653a2.724 2.724 0 0 1-2.731 2.714z" fill="#5DA546" data-color="1"></path>
        <path d="M80.226 145.356a2.723 2.723 0 0 1-2.731-2.713V72.989a2.722 2.722 0 0 1 2.731-2.713 2.722 2.722 0 0 1 2.731 2.713v69.653a2.724 2.724 0 0 1-2.731 2.714z" fill="#5DA546" data-color="1"></path>
        <path d="M84.012 154.214H50.867c-3.683 0-6.679-2.977-6.679-6.635v-.703c0-3.658 2.995-6.635 6.679-6.635h33.145c3.682 0 6.677 2.976 6.677 6.635v.703c0 3.658-2.995 6.635-6.677 6.635zm-33.145-8.547c-.672 0-1.217.542-1.217 1.208v.703c0 .666.546 1.208 1.217 1.208h33.145c.67 0 1.216-.542 1.216-1.208v-.703c0-.666-.546-1.208-1.216-1.208H50.867z" fill="#5DA546" data-color="1"></path>
        <path d="M134.565 144.125c-23.67 0-42.928-22.962-42.928-51.186 0-27.503 39.246-70.29 40.917-72.098 1.035-1.12 2.987-1.12 4.021 0 1.671 1.807 40.925 44.595 40.925 72.098 0 28.224-19.262 51.186-42.935 51.186zm0-117.363c-8.048 9.156-37.467 44.143-37.467 66.177 0 25.232 16.808 45.759 37.467 45.759 20.664 0 37.474-20.527 37.474-45.759 0-22.035-29.425-57.021-37.474-66.177z" fill="#5DA546" data-color="1"></path>
        <path d="M134.568 180a2.723 2.723 0 0 1-2.731-2.713v-35.925a2.722 2.722 0 0 1 2.731-2.713 2.722 2.722 0 0 1 2.731 2.713v35.925a2.722 2.722 0 0 1-2.731 2.713z" fill="#5DA546" data-color="1"></path>
        <path d="M148.451 129.793c-.58 0-1.163-.182-1.659-.56a2.703 2.703 0 0 1-.507-3.804c24.669-32.003 1.975-58.406 1.742-58.669a2.703 2.703 0 0 1 .252-3.83 2.746 2.746 0 0 1 3.854.251c.261.297 25.848 30.051-1.515 65.548a2.726 2.726 0 0 1-2.167 1.064z" fill="#5DA546" data-color="1"></path>
    </g>
</svg>
