<svg preserveAspectRatio="xMidYMid meet" data-bbox="34 20 132 160" viewBox="34 20 132 160" height="200" width="200" xmlns="http://www.w3.org/2000/svg" data-type="color" role="presentation" aria-hidden="true" aria-label=""><defs><style>#comp-kq9g539r1 svg [data-color="1"] {fill: #5DA546;}</style></defs>
    <g>
        <path d="M93.049 115.469a2.917 2.917 0 0 1-2.924-2.908V96.075c0-3.26 2.261-6.058 5.764-7.122l62.364-13.362c1.237-.193 1.9-.765 1.9-1.514V47.519a.847.847 0 0 0-.849-.844h-10.523a2.917 2.917 0 0 1-2.924-2.908 2.917 2.917 0 0 1 2.924-2.908h10.523c3.692 0 6.696 2.987 6.696 6.66v26.557c0 3.65-2.748 6.626-6.681 7.232L97.362 94.576c-.571.185-1.389.761-1.389 1.499v16.486a2.917 2.917 0 0 1-2.924 2.908z" fill="#5DA546" data-color="1"></path>
        <path d="M101.207 180H85.473c-3.78 0-6.852-3.06-6.852-6.819v-52.797c0-2.185 1.789-10.731 6.852-10.731h15.734c5.067 0 6.856 8.546 6.856 10.731v52.797c0 3.759-3.076 6.819-6.856 6.819zm-15.133-64.531c-.701.947-1.606 3.635-1.606 4.915v52.797c0 .553.449 1.003 1.005 1.003h15.734c.556 0 1.009-.451 1.009-1.003v-52.797c0-1.28-.91-3.968-1.614-4.915H86.074z" fill="#5DA546" data-color="1"></path>
        <path d="M138.092 67.534H47.614C40.106 67.534 34 61.461 34 53.998V33.536C34 26.073 40.106 20 47.614 20h90.479c7.507 0 13.613 6.073 13.613 13.536v20.462c-.001 7.463-6.107 13.536-13.614 13.536zM47.614 25.816c-4.283 0-7.766 3.465-7.766 7.72v20.462c0 4.256 3.483 7.72 7.766 7.72h90.479c4.283 0 7.766-3.465 7.766-7.72V33.536c0-4.256-3.483-7.72-7.766-7.72H47.614z" fill="#5DA546" data-color="1"></path>
        <path d="M136.763 56.235H47.865c-1.614 0-2.924-1.302-2.924-2.908s1.31-2.908 2.924-2.908h88.899c1.614 0 2.924 1.302 2.924 2.908s-1.311 2.908-2.925 2.908z" fill="#266040" data-color="1"></path>
    </g>
</svg>